<svg width="43" height="48" viewBox="0 0 43 48" fill="none" xmlns="http://www.w3.org/2000/svg">
<path d="M42.324 0L38.4681 43.195L21.1361 48L3.85174 43.2018L0 0H42.324Z" fill="white"/>
<path d="M35.1671 40.4445L38.4622 3.53238H21.162V44.3272L35.1671 40.4445Z" fill="white"/>
<path d="M8.83002 19.5553L9.30491 24.8538H21.162V19.5553H8.83002Z" fill="#1E1E1E"/>
<path d="M21.162 8.8309H21.1437H7.87582L8.35748 14.1295H21.162V8.8309Z" fill="#1E1E1E"/>
<path d="M21.162 38.8287V33.316L21.1388 33.3222L15.2378 31.7288L14.8605 27.503H11.9931H9.54166L10.284 35.8224L21.1376 38.8354L21.162 38.8287Z" fill="#1E1E1E"/>
<path d="M27.6682 24.8537L27.0532 31.7255L21.1437 33.3205V38.8329L32.0059 35.8225L32.0856 34.9273L33.3307 20.978L33.46 19.5552L34.4165 8.8309H21.1437V14.1295H28.6098L28.1277 19.5552H21.1437V24.8537H27.6682Z" fill="#1E1E1E"/>
</svg>
