<svg width="32" height="48" viewBox="0 0 32 48" fill="none" xmlns="http://www.w3.org/2000/svg">
<path d="M15.5 40C15.5 44.1398 12.1399 47.5 8 47.5C3.86014 47.5 0.5 44.1398 0.5 40C0.5 35.8601 3.86014 32.5 8 32.5H15.5V40Z" fill="white" stroke="black"/>
<path d="M0.5 23.9999C0.5 19.8601 3.86014 16.4999 8 16.4999H15.5V31.4999H8C3.86014 31.4999 0.5 28.1398 0.5 23.9999Z" fill="white" stroke="black"/>
<path d="M0.5 8C0.5 3.86014 3.86014 0.5 8 0.5H15.5V15.5H8C3.86014 15.5 0.5 12.1398 0.5 8Z" fill="white" stroke="black"/>
<path d="M16.5 0.5H24C28.1399 0.5 31.5 3.86014 31.5 8C31.5 12.1398 28.1399 15.5 24 15.5H16.5V0.5Z" fill="white" stroke="black"/>
<path d="M31.5 23.9999C31.5 28.1398 28.1399 31.4999 24 31.4999C19.8601 31.4999 16.5 28.1398 16.5 23.9999C16.5 19.8601 19.8601 16.4999 24 16.4999C28.1399 16.4999 31.5 19.8601 31.5 23.9999Z" fill="white" stroke="black"/>
</svg>
