<svg width="35" height="48" viewBox="0 0 35 48" fill="none" xmlns="http://www.w3.org/2000/svg">
<path d="M22.756 17.3375L17.9553 21.8074L13.4991 12.8151L15.8012 7.64469C16.383 6.61334 17.3346 6.59971 17.9164 7.64469L22.756 17.3375Z" fill="#AAAAAA"/>
<path d="M17.9573 21.8054L0 38.5076L13.5011 12.8151L17.9573 21.8054Z" fill="#E3E3E3"/>
<path d="M28.0199 10.5013C28.88 9.68209 29.7654 9.95841 29.9892 11.1221L34.6575 38.2819L19.1735 47.5777C18.6306 47.8813 17.1906 48 17.1906 48C17.1906 48 15.881 47.8404 15.3789 47.5641L0 38.5076L28.0199 10.5013Z" fill="white"/>
<path d="M13.5011 12.8151L0 38.5076L6.0169 0.954485C6.24263 -0.209198 6.90231 -0.327901 7.49778 0.703456L13.5011 12.8151Z" fill="#AAAAAA"/>
</svg>
