<svg width="48" height="48" viewBox="0 0 48 48" fill="none" xmlns="http://www.w3.org/2000/svg">
<path d="M28.7047 31.0643L16.9327 28.6044C16.8834 28.6997 16.8285 28.792 16.7684 28.8809L27.4852 44.5141L28.1317 43.8683L29.9549 32.5304C29.6467 32.4002 29.3732 32.1998 29.1562 31.9453C28.9391 31.6907 28.7845 31.389 28.7047 31.0641V31.0643ZM24.4102 15.6757C23.9692 16.3522 23.208 16.7999 22.341 16.7999C22.2075 16.7999 22.0778 16.7864 21.9503 16.7662L16.5817 25.1662L30.9248 18.9938C30.9203 18.9361 30.9076 18.8821 30.9076 18.8228C30.9076 18.7021 30.9241 18.5851 30.9436 18.4696L24.4102 15.6759V15.6757ZM24.8002 14.145L31.7498 17.1164C31.9713 16.9433 32.2246 16.8154 32.4953 16.7399L33.6375 9.63754L29.2859 5.28592L24.3877 12.9504C24.6278 13.3055 24.7701 13.7176 24.8002 14.1452V14.145ZM39.3622 15.3622L35.001 11.0003L34.053 16.8892C34.2933 17.01 34.5092 17.1743 34.6898 17.3737L39.3622 15.3622ZM28.9132 29.5132C29.0838 29.2033 29.329 28.9409 29.6266 28.7496C29.9241 28.5583 30.2646 28.4441 30.6173 28.4174L31.8698 20.6273C31.7716 20.5621 31.6838 20.4841 31.5976 20.4038L17.1719 26.6122C17.2087 26.763 17.2342 26.9167 17.2462 27.0765L28.9132 29.5132ZM40.5502 16.5509L35.5043 18.7221L47.9542 24.045L47.9992 24L40.5502 16.5509ZM31.5331 32.5538L30.0166 41.9819L38.8222 33.1763L32.4796 31.8518C32.2363 32.1701 31.9083 32.4134 31.5331 32.5538ZM14.4172 30.1298C14.0985 30.1298 13.7932 30.0751 13.5075 29.9782L10.5825 34.5555L9.45229 33.426L12.2227 29.0911C12.1542 29.0061 12.0904 28.9174 12.0315 28.8254L7.01258 30.9863L5.82291 29.7967L11.3166 27.4319L1.38467 25.359L0.0262496 24L0.455993 23.5703L11.9093 25.9612C12.041 25.7114 12.2096 25.4828 12.4095 25.2832L6.85058 17.1749L7.97331 16.0522L13.781 24.5242C13.9896 24.4758 14.2029 24.4509 14.417 24.45C14.6623 24.45 14.9 24.4845 15.1273 24.543L20.5619 16.0394C20.1194 15.5805 19.8723 14.9677 19.8726 14.3302C19.8726 14.1352 19.8974 13.9462 19.9401 13.7647L13.1602 10.866L14.3495 9.67654L20.7732 12.4237C21.0989 12.1553 21.4882 11.9751 21.9037 11.9007C22.3192 11.8262 22.7469 11.8599 23.1456 11.9985L28.1562 4.15644L24 0L0 24L24 48L26.3617 45.6383L15.5647 29.8867C15.2033 30.0468 14.8125 30.1297 14.4172 30.1298ZM33.3975 20.9631L32.1233 28.8824C32.346 29.0614 32.5304 29.2833 32.6656 29.5349C32.8007 29.7866 32.8839 30.0629 32.91 30.3473L40.1422 31.8571L46.7646 25.2347L34.8113 20.1241C34.4692 20.5794 33.9611 20.8811 33.3975 20.9633V20.9631Z" fill="white"/>
</svg>
