<svg width="80" height="48" viewBox="0 0 80 48" fill="none" xmlns="http://www.w3.org/2000/svg">
<path d="M18.8643 12.5191H33.9432V13.7118H20.2466V22.6887H33.1265V23.8815H20.2466V33.7372H34.1003V34.9299H18.8643V12.5191ZM35.294 12.5191H36.8962L43.9958 22.3748L51.2526 12.5191L61.1229 0L44.9068 23.4106L53.2631 34.9299H51.5981L43.9958 24.4464L36.3621 34.9299H34.7286L43.1476 23.4106L35.294 12.5191ZM53.86 13.7118V12.5191H71.0436V13.7118H63.1272V34.9299H61.745V13.7118H53.86Z" fill="white"/>
<path d="M0 12.5191H1.72779L25.553 48L15.7072 34.9299L1.44506 14.214L1.38223 34.9299H0V12.5191Z" fill="white"/>
<path d="M70.9044 33.3773C71.1902 33.3773 71.3986 33.1595 71.3986 32.8781C71.3986 32.5967 71.1902 32.3789 70.9044 32.3789C70.622 32.3789 70.4102 32.5967 70.4102 32.8781C70.4102 33.1595 70.622 33.3773 70.9044 33.3773ZM72.2626 32.064C72.2626 32.8948 72.8644 33.4376 73.7418 33.4376C74.6764 33.4376 75.2413 32.8781 75.2413 31.9066V28.4861H74.4882V31.9032C74.4882 32.4426 74.2159 32.7307 73.7351 32.7307C73.3048 32.7307 73.0123 32.4627 73.0022 32.064H72.2626ZM76.2263 32.0205C76.2801 32.8848 77.0029 33.4376 78.0787 33.4376C79.2285 33.4376 79.9479 32.858 79.9479 31.9334C79.9479 31.2064 79.5378 30.8044 78.5426 30.5732L78.0081 30.4426C77.3761 30.2952 77.1206 30.0975 77.1206 29.7524C77.1206 29.3169 77.5173 29.0322 78.1123 29.0322C78.6771 29.0322 79.0671 29.3102 79.1377 29.7558H79.8706C79.8269 28.9417 79.1074 28.3688 78.1224 28.3688C77.0634 28.3688 76.3574 28.9417 76.3574 29.8027C76.3574 30.5129 76.7575 30.935 77.6349 31.1394L78.2602 31.2901C78.9024 31.4409 79.1848 31.662 79.1848 32.0305C79.1848 32.4593 78.741 32.7709 78.1358 32.7709C77.487 32.7709 77.0365 32.4794 76.9726 32.0205H76.2263Z" fill="white"/>
</svg>
