<svg width="48" height="48" viewBox="0 0 48 48" fill="none" xmlns="http://www.w3.org/2000/svg">
<path d="M0 0H48V47.2H0V0Z" fill="#1E1E1E"/>
<path d="M3.81744 3.75354H44.1829V43.4467H3.81744V3.75354Z" fill="url(#paint0_linear_15_1873)"/>
<path d="M11.5997 13.3031C11.5997 13.3031 14.6345 13.2233 17.1328 13.2233C19.6573 13.2233 21.4573 13.8172 22.6657 14.8609C23.8208 15.8471 24.5997 17.5284 24.5997 19.4423C24.5997 21.3562 24.0086 22.9223 22.9341 24.0234C21.5374 25.4444 19.9099 26.2855 17.1328 26.4018C16.3656 26.434 15.6555 26.4417 15.6555 26.4417V32.6631H11.5995L11.5997 13.3031ZM15.6553 22.9948C16.096 23.0377 16.3721 23.017 17.0253 23.0092C19.2009 22.9831 20.5435 21.6601 20.5435 19.6593C20.5435 17.8618 19.4365 16.386 17.3478 16.3095C16.5153 16.2791 15.6553 16.3095 15.6553 16.3095V22.9948Z" fill="#1E1E1E"/>
<path d="M26.1475 28.3289C26.9649 28.8305 28.8939 29.5817 30.2088 29.5817C31.5521 29.5817 32.1068 29.1083 32.1068 28.3702C32.1068 27.6311 31.6688 26.8548 30.0036 26.2935C27.0534 25.2889 25.914 24.0863 25.9436 22.4031C25.9436 19.6846 28.2217 17.6462 31.7561 17.6462C33.4211 17.6462 34.7512 18.1905 35.6267 18.6334V21.8961C34.9835 21.5412 33.1289 20.7489 31.9024 20.7489C30.8209 20.7489 30.208 21.1921 30.208 21.93C30.208 22.6097 30.7633 22.9643 32.5158 23.5851C35.2318 24.5303 36.3712 25.9185 36.4 28.0457C36.4 30.7345 34.3273 32.8726 30.208 32.7428C28.7942 32.6983 27.228 32.1395 26.1472 31.5494L26.1475 28.3289Z" fill="#1E1E1E"/>
<defs>
<linearGradient id="paint0_linear_15_1873" x1="18.196" y1="4.3129" x2="28.596" y2="38.8732" gradientUnits="userSpaceOnUse">
<stop stop-color="white"/>
<stop offset="1" stop-color="#E1E1E1"/>
</linearGradient>
</defs>
</svg>
