<svg width="48" height="48" viewBox="0 0 48 48" fill="none" xmlns="http://www.w3.org/2000/svg">
<path d="M23.7072 28.2318C26.0443 28.2318 27.939 26.3372 27.939 24C27.939 21.6629 26.0443 19.7682 23.7072 19.7682C21.37 19.7682 19.4754 21.6629 19.4754 24C19.4754 26.3372 21.37 28.2318 23.7072 28.2318Z" fill="white"/>
<path d="M23.7072 32.67C36.248 32.67 46.4144 28.7883 46.4144 24C46.4144 19.2117 36.248 15.33 23.7072 15.33C11.1663 15.33 1 19.2117 1 24C1 28.7883 11.1663 32.67 23.7072 32.67Z" stroke="white" stroke-width="2"/>
<path d="M16.1987 28.335C22.4691 39.1957 30.9139 46.0592 35.0607 43.665C39.2075 41.2708 37.486 30.5257 31.2156 19.665C24.9452 8.80432 16.5004 1.94085 12.3536 4.33501C8.20676 6.72916 9.92829 17.4743 16.1987 28.335Z" stroke="white" stroke-width="2"/>
<path d="M16.1987 19.665C9.92829 30.5257 8.20677 41.2708 12.3536 43.665C16.5004 46.0592 24.9452 39.1957 31.2156 28.335C37.486 17.4743 39.2076 6.72917 35.0607 4.33501C30.9139 1.94085 22.4691 8.80432 16.1987 19.665Z" stroke="white" stroke-width="2"/>
</svg>
