<svg width="48" height="36" viewBox="0 0 48 36" fill="none" xmlns="http://www.w3.org/2000/svg">
<path d="M41.3318 20.6933C39.6572 20.7021 38.2018 21.1054 36.9831 21.7016C36.536 20.8161 36.0889 20.027 36.01 19.4484C35.9223 18.7733 35.8171 18.3612 35.9223 17.5546C36.0275 16.748 36.5009 15.5995 36.4922 15.5118C36.4834 15.4241 36.3869 15.0121 35.4225 15.0033C34.4581 14.9945 33.6252 15.1874 33.5288 15.4417C33.4323 15.6959 33.2482 16.2746 33.1255 16.8708C32.9589 17.7475 31.1967 20.8775 30.1884 22.517C29.864 21.8769 29.5835 21.3158 29.5221 20.8687C29.4344 20.1936 29.3292 19.7815 29.4344 18.9749C29.5396 18.1683 30.0131 17.0198 30.0043 16.9321C29.9955 16.8445 29.8991 16.4324 28.9347 16.4236C27.9703 16.4149 27.1374 16.6077 27.0409 16.862C26.9445 17.1162 26.8393 17.7124 26.6376 18.2911C26.436 18.8697 24.0951 24.0951 23.4814 25.4453C23.1657 26.1379 22.8939 26.6902 22.7011 27.0672C22.7011 27.0672 22.6923 27.0935 22.666 27.1374C22.4994 27.4618 22.403 27.6371 22.403 27.6371C22.403 27.6371 22.403 27.6371 22.403 27.6459C22.2715 27.8826 22.1312 28.1018 22.061 28.1018C22.0084 28.1018 21.912 27.4705 22.0786 26.6113C22.4293 24.7965 23.2622 21.9734 23.2534 21.8769C23.2534 21.8243 23.4112 21.3334 22.7098 21.0791C22.026 20.8249 21.7805 21.2457 21.7191 21.2457C21.6577 21.2457 21.6139 21.3947 21.6139 21.3947C21.6139 21.3947 22.3767 18.2209 20.1585 18.2209C18.7733 18.2209 16.862 19.7377 15.9151 21.1054C15.3189 21.4298 14.0477 22.1224 12.6887 22.8677C12.1714 23.157 11.6366 23.4463 11.1369 23.7181C11.1018 23.683 11.0667 23.6392 11.0317 23.6041C8.34885 20.7372 3.38651 18.7119 3.59693 14.863C3.67583 13.4603 4.15804 9.77795 13.1271 5.30658C20.5092 1.66812 26.3834 2.67637 27.4004 4.91205C28.8558 8.10338 24.2529 14.0301 16.6253 14.8893C13.7145 15.2137 12.189 14.0915 11.8032 13.6707C11.3999 13.2323 11.3385 13.206 11.1895 13.2937C10.944 13.4252 11.1018 13.8197 11.1895 14.0477C11.4174 14.6438 12.3555 15.6959 13.9424 16.2132C15.3452 16.6691 18.7557 16.9234 22.8852 15.3277C27.5056 13.5392 31.1178 8.56805 30.0569 4.40354C28.996 0.17766 21.9821 -1.21635 15.3452 1.14207C11.3999 2.54485 7.12142 4.75424 4.04406 7.62994C0.388063 11.0492 -0.190584 14.0214 0.0461357 15.2663C0.896572 19.6851 6.98991 22.5608 9.42724 24.6913C9.3045 24.7614 9.19052 24.8228 9.09408 24.8754C7.87541 25.4803 3.2287 27.9089 2.0714 30.4777C0.756294 33.3885 2.28182 35.4752 3.29007 35.7557C6.42002 36.6237 9.63766 35.0631 11.3648 32.4855C13.092 29.9079 12.8816 26.5587 12.0838 25.0244C12.075 25.0069 12.0662 24.9894 12.0487 24.9718C12.3643 24.7877 12.6887 24.5948 13.0043 24.4107C13.6268 24.0425 14.2405 23.7006 14.7666 23.42C14.4685 24.2354 14.2493 25.2085 14.1441 26.6113C14.0126 28.2596 14.6877 30.3988 15.5732 31.2405C15.9677 31.6087 16.4324 31.6175 16.7305 31.6175C17.765 31.6175 18.2297 30.7583 18.747 29.7413C19.3782 28.4963 19.9481 27.0497 19.9481 27.0497C19.9481 27.0497 19.2379 30.96 21.1668 30.96C21.8682 30.96 22.5783 30.0481 22.8939 29.5835C22.8939 29.5922 22.8939 29.5922 22.8939 29.5922C22.8939 29.5922 22.9115 29.5659 22.9465 29.5046C23.0167 29.3906 23.0605 29.3204 23.0605 29.3204C23.0605 29.3204 23.0605 29.3117 23.0605 29.3029C23.3411 28.8119 23.9723 27.6985 24.9104 25.8486C26.1203 23.4638 27.2864 20.4829 27.2864 20.4829C27.2864 20.4829 27.3916 21.2106 27.7511 22.4205C27.9615 23.1307 28.3999 23.911 28.7506 24.665C28.47 25.0595 28.2947 25.2787 28.2947 25.2787C28.2947 25.2787 28.2947 25.2787 28.3034 25.2875C28.0755 25.5855 27.83 25.9099 27.5582 26.2256C26.6025 27.3653 25.4628 28.6717 25.305 29.0487C25.1209 29.4958 25.1647 29.8202 25.5154 30.0832C25.7696 30.2761 26.2255 30.3024 26.6902 30.2761C27.5494 30.2147 28.1544 30.0043 28.4525 29.8728C28.9171 29.7062 29.4607 29.452 29.9692 29.075C30.9073 28.3823 31.4772 27.3916 31.4246 26.0853C31.3983 25.3664 31.1616 24.6474 30.8723 23.9723C30.9599 23.8496 31.0388 23.7269 31.1265 23.6041C32.6082 21.4386 33.7567 19.0626 33.7567 19.0626C33.7567 19.0626 33.8619 19.7903 34.2214 21.0002C34.3968 21.6139 34.7562 22.2802 35.0718 22.929C33.6778 24.06 32.8186 25.3751 32.5118 26.2343C31.9594 27.83 32.389 28.5489 33.2044 28.7155C33.5726 28.7944 34.0987 28.6191 34.4844 28.4525C34.9754 28.2947 35.554 28.0229 36.1064 27.6196C37.0445 26.927 37.9475 25.9625 37.8949 24.6562C37.8686 24.06 37.7108 23.4726 37.4916 22.9027C38.6752 22.4118 40.2008 22.14 42.1471 22.3679C46.3204 22.8589 47.1445 25.4628 46.9867 26.5587C46.8289 27.6546 45.9522 28.2508 45.6628 28.4349C45.3735 28.6191 45.2771 28.6804 45.3034 28.8119C45.3385 29.0048 45.4787 28.9961 45.7242 28.961C46.0661 28.8996 47.9161 28.0755 47.995 26.059C48.1265 23.4814 45.6716 20.667 41.3318 20.6933ZM9.13791 31.5474C7.75267 33.0554 5.82384 33.6252 4.99094 33.143C4.09667 32.6258 4.44736 30.3988 6.14824 28.8032C7.18279 27.83 8.51543 26.927 9.40094 26.3746C9.60259 26.2519 9.90068 26.0765 10.2601 25.8573C10.3215 25.8223 10.3566 25.8047 10.3566 25.8047C10.4267 25.7609 10.4969 25.7171 10.567 25.6732C11.1895 27.9527 10.5933 29.9605 9.13791 31.5474ZM19.2204 24.6913C18.7382 25.8661 17.73 28.8733 17.1162 28.7067C16.5902 28.5665 16.2658 26.2869 17.011 24.0337C17.388 22.9027 18.1859 21.5525 18.6505 21.0265C19.4045 20.1848 20.2374 19.9043 20.4391 20.2462C20.6933 20.6933 19.5185 23.9548 19.2204 24.6913ZM27.5407 28.6717C27.339 28.7769 27.1461 28.847 27.0585 28.7944C26.9971 28.7593 27.1461 28.6191 27.1461 28.6191C27.1461 28.6191 28.1894 27.4968 28.6015 26.9883C28.8382 26.6902 29.1188 26.3395 29.4169 25.945C29.4169 25.9801 29.4169 26.0239 29.4169 26.059C29.4169 27.4004 28.1193 28.3034 27.5407 28.6717ZM33.9584 27.2075C33.8093 27.1023 33.8356 26.7516 34.3354 25.6557C34.5283 25.2261 34.9842 24.5072 35.7645 23.8145C35.8521 24.0951 35.9135 24.3669 35.9047 24.6211C35.896 26.3132 34.6861 26.9445 33.9584 27.2075Z" fill="white"/>
</svg>
