<svg xmlns="http://www.w3.org/2000/svg" version="1.1" xmlns:xlink="http://www.w3.org/1999/xlink" xmlns:svgjs="http://svgjs.com/svgjs" width="1440" height="560" preserveAspectRatio="none" viewBox="0 0 1440 560"><g mask="url(&quot;#SvgjsMask1221&quot;)" fill="none"><rect width="1440" height="560" x="0" y="0" fill="rgba(39, 39, 42, 1)"></rect><path d="M1440 0L1370.44 0L1440 90.12z" fill="rgba(255, 255, 255, .1)"></path><path d="M1370.44 0L1440 90.12L1440 92.75L836.22 0z" fill="rgba(255, 255, 255, .075)"></path><path d="M836.22 0L1440 92.75L1440 264.08000000000004L710.1 0z" fill="rgba(255, 255, 255, .05)"></path><path d="M710.1 0L1440 264.08000000000004L1440 317.80000000000007L469.65000000000003 0z" fill="rgba(255, 255, 255, .025)"></path><path d="M0 560L567.72 560L0 509.61z" fill="rgba(0, 0, 0, .1)"></path><path d="M0 509.61L567.72 560L995.9000000000001 560L0 419.76z" fill="rgba(0, 0, 0, .075)"></path><path d="M0 419.76L995.9000000000001 560L1264.0100000000002 560L0 199.73z" fill="rgba(0, 0, 0, .05)"></path><path d="M0 199.73000000000002L1264.0100000000002 560L1305.7700000000002 560L0 151.21z" fill="rgba(0, 0, 0, .025)"></path></g><defs><mask id="SvgjsMask1221"><rect width="1440" height="560" fill="#ffffff"></rect></mask></defs></svg>