<svg xmlns="http://www.w3.org/2000/svg" version="1.1" xmlns:xlink="http://www.w3.org/1999/xlink" xmlns:svgjs="http://svgjs.com/svgjs" width="1440" height="560" preserveAspectRatio="none" viewBox="0 0 1440 560"><g mask="url(&quot;#SvgjsMask1216&quot;)" fill="none"><rect width="1440" height="560" x="0" y="0" fill="rgba(39, 39, 42, 1)"></rect><path d="M1440 0L909.54 0L1440 176.29z" fill="rgba(255, 255, 255, .1)"></path><path d="M909.54 0L1440 176.29L1440 300.35L493.76 0z" fill="rgba(255, 255, 255, .075)"></path><path d="M493.76 0L1440 300.35L1440 418.42L433.75 0z" fill="rgba(255, 255, 255, .05)"></path><path d="M433.75 0L1440 418.42L1440 491.97L387.86 0z" fill="rgba(255, 255, 255, .025)"></path><path d="M0 560L307.17 560L0 418.85z" fill="rgba(0, 0, 0, .1)"></path><path d="M0 418.85L307.17 560L600.03 560L0 407z" fill="rgba(0, 0, 0, .075)"></path><path d="M0 407L600.03 560L909.3699999999999 560L0 344.65999999999997z" fill="rgba(0, 0, 0, .05)"></path><path d="M0 344.65999999999997L909.3699999999999 560L1217.61 560L0 188.68999999999997z" fill="rgba(0, 0, 0, .025)"></path></g><defs><mask id="SvgjsMask1216"><rect width="1440" height="560" fill="#ffffff"></rect></mask></defs></svg>