<svg xmlns="http://www.w3.org/2000/svg" version="1.1" xmlns:xlink="http://www.w3.org/1999/xlink" xmlns:svgjs="http://svgjs.com/svgjs" width="1440" height="560" preserveAspectRatio="none" viewBox="0 0 1440 560"><g mask="url(&quot;#SvgjsMask1001&quot;)" fill="none"><rect width="1440" height="560" x="0" y="0" fill="rgba(212, 212, 216, 1)"></rect><path d="M0,384.994C70.619,391.824,121.395,315.052,168.213,261.744C205.987,218.734,209.649,157.888,241.331,110.212C281.652,49.535,376.027,18.427,378.289,-54.39C380.475,-124.759,297.77,-164.862,251.527,-217.949C205.425,-270.874,174.812,-346.23,107.312,-365.471C39.869,-384.696,-26.894,-340.031,-92.817,-316.106C-154.535,-293.707,-216.202,-273.397,-265.592,-230.137C-320.318,-182.203,-388.158,-128.769,-389.737,-56.036C-391.326,17.126,-320.369,68.779,-273.3,124.812C-237.43,167.513,-188.918,192.659,-148.527,231.112C-95.827,281.283,-72.425,377.99,0,384.994" fill="#bbbbc2"></path><path d="M1440 941.344C1512.156 939.255 1586.441 919.836 1640.535 872.038 1691.663 826.8620000000001 1704.763 755.241 1724.526 689.939 1741.862 632.658 1763.3519999999999 573.607 1748.3899999999999 515.66 1734.041 460.08799999999997 1675.394 431.03 1645.09 382.288 1606.852 320.78499999999997 1609.792 230.36200000000002 1547.768 192.97500000000002 1485.04 155.164 1399.266 163.767 1332.492 193.86200000000002 1268.5 222.70299999999997 1246.283 299.342 1198.234 350.509 1147.476 404.56100000000004 1052.243 429.34000000000003 1042.356 502.827 1032.454 576.428 1119.308 624.858 1152.378 691.352 1183.933 754.8 1178.379 837.384 1231.862 883.87 1287.309 932.063 1366.567 943.47 1440 941.344" fill="#ededee"></path></g><defs><mask id="SvgjsMask1001"><rect width="1440" height="560" fill="#ffffff"></rect></mask></defs></svg>