<svg xmlns="http://www.w3.org/2000/svg" version="1.1" xmlns:xlink="http://www.w3.org/1999/xlink" xmlns:svgjs="http://svgjs.com/svgjs" width="1440" height="560" preserveAspectRatio="none" viewBox="0 0 1440 560"><g mask="url(&quot;#SvgjsMask1004&quot;)" fill="none"><rect width="1440" height="560" x="0" y="0" fill="rgba(39, 39, 42, 1)"></rect><path d="M0,356.409C69.81,352.603,143.809,352.932,200.705,312.302C256.619,272.373,272.866,200.057,304.416,139.022C337.801,74.437,396.345,16.274,391.212,-56.248C386.012,-129.719,327.332,-186.213,277.556,-240.503C228.973,-293.492,174.284,-339.42,107.406,-365.792C35.997,-393.95,-46.958,-428.883,-116.21,-395.774C-185.626,-362.587,-186.293,-263.117,-233.856,-202.638C-278.117,-146.358,-376.341,-126.4,-384.038,-55.216C-391.792,16.488,-297.685,56.677,-269.055,122.873C-239.503,191.203,-271.501,286.181,-215.279,334.981C-159.693,383.229,-73.496,360.416,0,356.409" fill="#232325"></path><path d="M1440 1063.951C1531.725 1048.489 1605.461 989.36 1681.507 935.7919999999999 1754.357 884.476 1828.866 835.03 1874.031 758.215 1922.32 676.085 1944.375 582.639 1945.165 487.368 1946.0529999999999 380.308 1950.057 259.685 1878.829 179.752 1807.714 99.945 1687.982 84.755 1581.244 78.969 1489.139 73.97699999999998 1405.561 116.38 1319.446 149.43099999999998 1240.398 179.769 1150.046 196.92899999999997 1098.623 264.195 1048.062 330.334 1055.837 420.788 1048.6 503.725 1041.766 582.052 1044.076 657.19 1057.574 734.648 1075.319 836.473 1061.4850000000001 959.662 1139.809 1027.106 1217.783 1094.249 1338.533 1081.0549999999998 1440 1063.951" fill="#2b2b2f"></path></g><defs><mask id="SvgjsMask1004"><rect width="1440" height="560" fill="#ffffff"></rect></mask></defs></svg>