<svg xmlns="http://www.w3.org/2000/svg" version="1.1" xmlns:xlink="http://www.w3.org/1999/xlink" xmlns:svgjs="http://svgjs.com/svgjs" width="1440" height="560" preserveAspectRatio="none" viewBox="0 0 1440 560"><g mask="url(&quot;#SvgjsMask1003&quot;)" fill="none"><path d="M420 103.54C390.85 103.54 363.55 120.3 363.55 140C363.55 161.25 390.51 185.45 420 185.45C454.45 185.45 491.43 161.03 491.43 140C491.43 120.08 454.79 103.54 420 103.54" stroke="rgba(89, 89, 89, 1)" stroke-width="2"></path><path d="M140 155.56C87.06 164.2 57.04 227.32 57.04 280C57.04 313.89 101.8 299.85 140 328.7C194.5 369.85 188.91 377.73 242.44 420C258.91 433 262.79 439.25 280 439.25C290.96 439.25 296.53 432.81 298.78 420C310.53 353.18 315.07 346.45 308 280C305.68 258.25 298.26 257.12 280 243.6C214.26 194.9 198.54 146 140 155.56" stroke="rgba(89, 89, 89, 1)" stroke-width="2"></path><path d="M700 250C685.67 253.15 687.65 265.44 687.65 280C687.65 290.94 688.84 297.78 700 301C765.01 319.78 772.68 330.2 840 324C886.68 319.7 928 299.8 928 280C928 261.06 885.83 252.55 840 246.52C771.83 237.55 761.85 236.41 700 250" stroke="rgba(89, 89, 89, 1)" stroke-width="2"></path><path d="M0 64.47C19.51 25.44 29.67 18.57 70 0C99.67 -13.66 105 0 140 0C182.24 0 193.67 -20.25 224.48 0C263.67 25.75 252.7 45.73 280 92C294.01 115.73 307.1 117.12 307.1 140C307.1 157.92 295.93 173.6 280 173.6C258.38 173.6 256.7 155.72 232 140C186.7 111.16 181.92 84.48 140 84.48C110.77 84.48 114.37 111.82 89.69 140C44.37 191.76 25.5 244.36 0 244.36C-19.34 244.36 0 192.18 0 140C0 102.24 -15.49 95.44 0 64.47" stroke="rgba(89, 89, 89, 1)" stroke-width="2"></path><path d="M420 67.08C370.37 67.08 326.67 18.51 326.67 0C326.67 -15.03 373.34 0 420 0C490 0 560 -15.9 560 0C560 17.64 487.03 67.08 420 67.08" stroke="rgba(89, 89, 89, 1)" stroke-width="2"></path><path d="M708.75 140C708.75 101.94 778.61 104.88 840 59.23C872.76 34.88 862.19 14.74 897.04 0C932.19 -14.87 938.52 0 980 0C1044.62 0 1047.43 -5.88 1109.23 0C1117.43 0.78 1114.78 6.53 1120 13.33C1168.53 76.53 1189.75 69.04 1216.73 140C1240.44 202.37 1245.07 220.01 1221.38 280C1196.7 342.51 1169.86 331.75 1120 385C1104.32 401.75 1098.59 399.01 1090.3 420C1064.04 486.51 1087.98 512.94 1050.91 560C1032.83 582.94 1015.45 560 980 560C948.26 560 940.57 576.16 916.51 560C870.57 529.16 890.01 491.87 840 466C781.76 435.87 753.4 423.47 700 448C651.09 470.47 679.6 524.62 635.38 560C609.6 580.62 597.69 560 560 560C490 560 490 560 420 560C350 560 350 560 280 560C210 560 210 560 140 560C70 560 42.35 587.65 0 560C-27.65 541.95 -24.48 497.98 0 468.61C33.86 427.98 59.31 446.15 116.67 420C129.31 414.24 128.91 404.78 140 404.78C149.11 404.78 147.13 414.44 157.07 420C217.13 453.55 223.69 483 280 483C315.88 483 325.76 458.93 341.46 420C366.69 357.43 336.32 341.48 361.85 280C375.59 246.93 388.72 252.43 420 230.91C487.8 184.27 504.48 131.07 560 143.68C612.57 155.62 597.42 212.22 636.18 280C667.42 334.63 651.89 366.31 700 388.5C753.8 413.31 771.9 389.64 840 374C911.9 357.49 914.34 356.54 980 324.21C1009.79 309.54 1030.91 307.32 1030.91 280C1030.91 232.72 1022.74 191.01 980 175C927.28 155.25 906.86 217.11 840 208.48C771.24 199.61 708.75 176.56 708.75 140" stroke="rgba(89, 89, 89, 1)" stroke-width="2"></path><path d="M1297.78 140C1293.67 75.12 1337.74 63.96 1384.44 0C1388.85 -6.04 1392.22 0 1400 0C1470 0 1499.59 -29.59 1540 0C1569.59 21.66 1551.5 55.73 1540 102.5C1534.29 125.73 1505.57 121.25 1505.57 140C1505.57 158.75 1534.29 154.27 1540 177.5C1551.5 224.27 1540 228.75 1540 280C1540 319.32 1559.39 358.63 1540 358.63C1508.14 358.63 1487.71 320.55 1437.5 280C1417.71 264.02 1417.97 263.58 1400 245.57C1348.11 193.58 1301.45 197.9 1297.78 140" stroke="rgba(89, 89, 89, 1)" stroke-width="2"></path><path d="M1207.21 560C1207.21 540.29 1225.58 497.52 1260 495.6C1321.97 492.14 1331.46 553.11 1400 549.23C1471.46 545.18 1493.75 476.17 1540 479.73C1563.75 481.56 1565.51 545.37 1540 560C1495.51 585.51 1470 560 1400 560C1330 560 1330 560 1260 560C1233.61 560 1207.21 572.49 1207.21 560" stroke="rgba(89, 89, 89, 1)" stroke-width="2"></path><path d="M0 110.53C10.64 110.53 35 123.85 35 140C35 158.95 9.95 180.73 0 180.73C-7.55 180.73 0 160.37 0 140C0 125.26 -6.86 110.53 0 110.53" stroke="rgba(89, 89, 89, 1)" stroke-width="2"></path><path d="M140 24.14C129.44 24.14 120 7.37 120 0C120 -4.7 130 0 140 0C152.07 0 164.14 -5 164.14 0C164.14 7.07 151.51 24.14 140 24.14" stroke="rgba(89, 89, 89, 1)" stroke-width="2"></path><path d="M420 30.63C397.34 30.63 377.39 8.45 377.39 0C377.39 -6.86 398.69 0 420 0C451.96 0 483.91 -7.26 483.91 0C483.91 8.05 450.6 30.63 420 30.63" stroke="rgba(89, 89, 89, 1)" stroke-width="2"></path><path d="M781.67 140C781.67 123.08 810.23 104.1 840 104.1C873.54 104.1 908.29 123.16 908.29 140C908.29 156.32 873.68 170.43 840 170.43C810.37 170.43 781.67 156.25 781.67 140" stroke="rgba(89, 89, 89, 1)" stroke-width="2"></path><path d="M980 73.18C956.37 73.18 940.25 24.77 940.25 0C940.25 -11.82 960.13 0 980 0C1010.96 0 1041.92 -14.36 1041.92 0C1041.92 22.23 1007.2 73.18 980 73.18" stroke="rgba(89, 89, 89, 1)" stroke-width="2"></path><path d="M1066.47 140C1066.47 112.54 1095.83 96.67 1120 96.67C1139.14 96.67 1153.09 115.39 1153.09 140C1153.09 190.58 1140.94 247.06 1120 247.06C1097.63 247.06 1066.47 187.73 1066.47 140" stroke="rgba(89, 89, 89, 1)" stroke-width="2"></path><path d="M1353.33 140C1353.33 106.4 1376.4 68.29 1400 68.29C1423.83 68.29 1448.2 106.49 1448.2 140C1448.2 166.44 1423.91 188.2 1400 188.2C1376.47 188.2 1353.33 166.35 1353.33 140" stroke="rgba(89, 89, 89, 1)" stroke-width="2"></path><path d="M1540 40C1519.81 40 1477.78 10.86 1477.78 0C1477.78 -9.14 1521.06 -12.17 1540 0C1552.17 7.83 1550.92 40 1540 40" stroke="rgba(89, 89, 89, 1)" stroke-width="2"></path><path d="M415.69 280C416.37 277.28 417.31 277.18 420 276.36C489.47 255.08 498.88 234.44 560 235.79C581.24 236.26 578.57 255.75 584.71 280C601.9 347.85 605.22 349.81 606.67 420C608.12 489.81 609.69 502.46 590.51 560C586.36 572.46 575.26 560 560 560C500.5 560 497.92 567.12 441 560C427.92 558.37 425.01 554.85 420 542.5C396.59 484.85 385.16 481.78 384.15 420C383.01 350.53 398.44 349.1 415.69 280" stroke="rgba(89, 89, 89, 1)" stroke-width="2"></path><path d="M1500 280C1500 261.31 1528.28 240 1540 240C1548.28 240 1540 260 1540 280C1540 295.34 1547.57 310.68 1540 310.68C1527.57 310.68 1500 296.65 1500 280" stroke="rgba(89, 89, 89, 1)" stroke-width="2"></path><path d="M933.33 420C936.15 402.19 957.27 416.32 980 416.32C982.73 416.32 983.75 417.26 984.24 420C996.48 489.1 1007.25 500.66 1005.45 560C1005.13 570.66 992.72 560 980 560C968.61 560 960.44 569.68 957.21 560C937.1 499.68 924.76 474.03 933.33 420" stroke="rgba(89, 89, 89, 1)" stroke-width="2"></path><path d="M0 517.22C54.17 517.22 140 549.07 140 560C140 570.46 53.62 576.38 0 560C-16.38 554.99 -15.83 517.22 0 517.22" stroke="rgba(89, 89, 89, 1)" stroke-width="2"></path><path d="M140 560C140 551.57 210.29 526.75 280 526.75C340.75 526.75 400.91 551.54 400.91 560C400.91 568.16 340.46 560 280 560C210 560 140 568.2 140 560" stroke="rgba(89, 89, 89, 1)" stroke-width="2"></path><path d="M1475.38 560C1475.38 551.1 1517.89 526.4 1540 526.4C1550.2 526.4 1551.05 554.25 1540 560C1518.74 571.05 1475.38 567.9 1475.38 560" stroke="rgba(89, 89, 89, 1)" stroke-width="2"></path></g><defs><mask id="SvgjsMask1003"><rect width="1440" height="560" fill="#ffffff"></rect></mask></defs></svg>