<svg width="24" height="24" viewBox="0 0 24 24" fill="none" xmlns="http://www.w3.org/2000/svg">
<g clip-path="url(#clip0_14_1858)">
<rect width="24" height="24" rx="12" fill="#0A0B09"/>
<path d="M9.60483 23.2738C9.60483 23.5929 9.225 24.0169 8.625 23.9062V24L16.3125 24.0013V23.8543C15.7035 23.9726 15.5538 23.5963 15.5538 23.274C15.5538 22.8786 15.5688 21.5798 15.5688 19.9691C15.5688 18.8449 15.1848 18.1101 14.7543 17.7381C17.4273 17.4399 20.2331 16.4211 20.2331 11.7934C20.2331 10.4779 19.7688 9.40275 18.9993 8.56012C19.1231 8.25525 19.5348 7.03087 18.8801 5.37206C18.8801 5.37206 17.8743 5.04825 15.5838 6.60694C14.6253 6.33956 13.5986 6.20625 12.5793 6.201C11.5586 6.20644 10.5326 6.33956 9.57483 6.60694C7.28283 5.04825 6.27483 5.37206 6.27483 5.37206C5.62233 7.03087 6.03408 8.25525 6.15783 8.56012C5.38983 9.40275 4.92258 10.4779 4.92258 11.7934C4.92258 16.4098 7.72383 17.4429 10.3886 17.7471C10.0458 18.0482 9.73533 18.5792 9.62658 19.3577C8.94258 19.6665 7.20483 20.1981 6.13383 18.357C6.13383 18.357 5.50008 17.2005 4.29633 17.1154C4.29633 17.1154 3.12408 17.1002 4.21383 17.8479C4.21383 17.8479 5.00058 18.2184 5.54583 19.6099C5.54583 19.6099 6.25008 21.9531 9.58833 21.225C9.59433 22.2302 9.60483 22.9877 9.60483 23.2738Z" fill="white"/>
</g>
<defs>
<clipPath id="clip0_14_1858">
<rect width="24" height="24" rx="12" fill="white"/>
</clipPath>
</defs>
</svg>
